TITLE ""
FILE "Disc6Track28.mp3" MP3
  TRACK 01 AUDIO
    TITLE "Disc6Track28_01"
    INDEX 01 00:00:00
  TRACK 02 AUDIO
    TITLE "Disc6Track28_02"
    INDEX 01 00:01:16
  TRACK 03 AUDIO
    TITLE "Disc6Track28_03"
    INDEX 01 00:02:21
  TRACK 04 AUDIO
    TITLE "Disc6Track28_04"
    INDEX 01 00:03:48
  TRACK 05 AUDIO
    TITLE "Disc6Track28_05"
    INDEX 01 00:09:31
  TRACK 06 AUDIO
    TITLE "Disc6Track28_06"
    INDEX 01 00:09:62
  TRACK 07 AUDIO
    TITLE "Disc6Track28_07"
    INDEX 01 00:11:00
  TRACK 08 AUDIO
    TITLE "Disc6Track28_08"
    INDEX 01 00:12:66
  TRACK 09 AUDIO
    TITLE "Disc6Track28_09"
    INDEX 01 00:14:03
  TRACK 10 AUDIO
    TITLE "Disc6Track28_10"
    INDEX 01 00:15:61
  TRACK 11 AUDIO
    TITLE "Disc6Track28_11"
    INDEX 01 00:16:17
  TRACK 12 AUDIO
    TITLE "Disc6Track28_12"
    INDEX 01 00:17:36
  TRACK 13 AUDIO
    TITLE "Disc6Track28_13"
    INDEX 01 00:19:04
  TRACK 14 AUDIO
    TITLE "Disc6Track28_14"
    INDEX 01 00:20:23
  TRACK 15 AUDIO
    TITLE "Disc6Track28_15"
    INDEX 01 00:22:12
  TRACK 16 AUDIO
    TITLE "Disc6Track28_16"
    INDEX 01 00:22:43
  TRACK 17 AUDIO
    TITLE "Disc6Track28_17"
    INDEX 01 00:23:49
  TRACK 18 AUDIO
    TITLE "Disc6Track28_18"
    INDEX 01 00:25:04
  TRACK 19 AUDIO
    TITLE "Disc6Track28_19"
    INDEX 01 00:26:10
  TRACK 20 AUDIO
    TITLE "Disc6Track28_20"
    INDEX 01 00:29:06
  TRACK 21 AUDIO
    TITLE "Disc6Track28_21"
    INDEX 01 00:29:35
  TRACK 22 AUDIO
    TITLE "Disc6Track28_22"
    INDEX 01 00:30:66
  TRACK 23 AUDIO
    TITLE "Disc6Track28_23"
    INDEX 01 00:32:01
  TRACK 24 AUDIO
    TITLE "Disc6Track28_24"
    INDEX 01 00:33:31
  TRACK 25 AUDIO
    TITLE "Disc6Track28_25"
    INDEX 01 00:33:65
  TRACK 26 AUDIO
    TITLE "Disc6Track28_26"
    INDEX 01 00:35:11
  TRACK 27 AUDIO
    TITLE "Disc6Track28_27"
    INDEX 01 00:36:12
  TRACK 28 AUDIO
    TITLE "Disc6Track28_28"
    INDEX 01 00:37:33
  TRACK 29 AUDIO
    TITLE "Disc6Track28_29"
    INDEX 01 00:40:43
  TRACK 30 AUDIO
    TITLE "Disc6Track28_30"
    INDEX 01 00:40:74
  TRACK 31 AUDIO
    TITLE "Disc6Track28_31"
    INDEX 01 00:42:36
  TRACK 32 AUDIO
    TITLE "Disc6Track28_32"
    INDEX 01 00:44:35
  TRACK 33 AUDIO
    TITLE "Disc6Track28_33"
    INDEX 01 00:45:72
  TRACK 34 AUDIO
    TITLE "Disc6Track28_34"
    INDEX 01 00:48:58
  TRACK 35 AUDIO
    TITLE "Disc6Track28_35"
    INDEX 01 00:49:15
  TRACK 36 AUDIO
    TITLE "Disc6Track28_36"
    INDEX 01 00:50:36
  TRACK 37 AUDIO
    TITLE "Disc6Track28_37"
    INDEX 01 00:52:25
  TRACK 38 AUDIO
    TITLE "Disc6Track28_38"
    INDEX 01 00:53:46
  TRACK 39 AUDIO
    TITLE "Disc6Track28_39"
    INDEX 01 00:55:43
  TRACK 40 AUDIO
    TITLE "Disc6Track28_40"
    INDEX 01 00:55:74
  TRACK 41 AUDIO
    TITLE "Disc6Track28_41"
    INDEX 01 00:57:04
  TRACK 42 AUDIO
    TITLE "Disc6Track28_42"
    INDEX 01 00:58:63
  TRACK 43 AUDIO
    TITLE "Disc6Track28_43"
    INDEX 01 00:59:66
  TRACK 44 AUDIO
    TITLE "Disc6Track28_44"
    INDEX 01 01:03:60
  TRACK 45 AUDIO
    TITLE "Disc6Track28_45"
    INDEX 01 01:04:12
  TRACK 46 AUDIO
    TITLE "Disc6Track28_46"
    INDEX 01 01:05:29
  TRACK 47 AUDIO
    TITLE "Disc6Track28_47"
    INDEX 01 01:06:13
  TRACK 48 AUDIO
    TITLE "Disc6Track28_48"
    INDEX 01 01:07:28
  TRACK 49 AUDIO
    TITLE "Disc6Track28_49"
    INDEX 01 01:09:62
  TRACK 50 AUDIO
    TITLE "Disc6Track28_50"
    INDEX 01 01:10:23
  TRACK 51 AUDIO
    TITLE "Disc6Track28_51"
    INDEX 01 01:11:38
  TRACK 52 AUDIO
    TITLE "Disc6Track28_52"
    INDEX 01 01:12:24
  TRACK 53 AUDIO
    TITLE "Disc6Track28_53"
    INDEX 01 01:13:35
  TRACK 54 AUDIO
    TITLE "Disc6Track28_54"
    INDEX 01 01:15:65
  TRACK 55 AUDIO
    TITLE "Disc6Track28_55"
    INDEX 01 01:16:21
  TRACK 56 AUDIO
    TITLE "Disc6Track28_56"
    INDEX 01 01:17:36
  TRACK 57 AUDIO
    TITLE "Disc6Track28_57"
    INDEX 01 01:18:20
  TRACK 58 AUDIO
    TITLE "Disc6Track28_58"
    INDEX 01 01:19:39
  TRACK 59 AUDIO
    TITLE "Disc6Track28_59"
    INDEX 01 01:21:36
